<svg width="39" height="38" viewBox="0 0 39 38" fill="none" xmlns="http://www.w3.org/2000/svg">
<path d="M19.6947 10.4665C18.0079 10.4665 16.3591 10.9666 14.9566 11.9037C13.5541 12.8408 12.4611 14.1728 11.8156 15.7311C11.1701 17.2894 11.0012 19.0042 11.3303 20.6585C11.6593 22.3128 12.4716 23.8324 13.6643 25.0251C14.857 26.2178 16.3766 27.03 18.0309 27.3591C19.6852 27.6882 21.3999 27.5193 22.9583 26.8738C24.5166 26.2283 25.8485 25.1352 26.7856 23.7328C27.7227 22.3303 28.2229 20.6814 28.2229 18.9947C28.22 16.7338 27.3205 14.5663 25.7218 12.9676C24.1231 11.3689 21.9556 10.4694 19.6947 10.4665ZM19.6947 25.2982C18.4479 25.2982 17.2292 24.9285 16.1926 24.2359C15.156 23.5432 14.3481 22.5588 13.871 21.4069C13.3939 20.2551 13.2691 18.9877 13.5123 17.765C13.7555 16.5422 14.3559 15.419 15.2374 14.5375C16.119 13.6559 17.2421 13.0556 18.4649 12.8123C19.6877 12.5691 20.9551 12.6939 22.1069 13.171C23.2587 13.6481 24.2432 14.4561 24.9358 15.4927C25.6285 16.5293 25.9982 17.748 25.9982 18.9947C25.9982 20.6665 25.334 22.2698 24.1519 23.4519C22.9698 24.6341 21.3664 25.2982 19.6947 25.2982ZM28.5937 0.0842285H10.7956C8.14132 0.0871728 5.59658 1.14289 3.71971 3.01976C1.84284 4.89663 0.787124 7.44137 0.78418 10.0957V27.8938C0.787124 30.548 1.84284 33.0928 3.71971 34.9697C5.59658 36.8465 8.14132 37.9022 10.7956 37.9052H28.5937C31.248 37.9022 33.7927 36.8465 35.6696 34.9697C37.5465 33.0928 38.6022 30.548 38.6051 27.8938V10.0957C38.6022 7.44137 37.5465 4.89663 35.6696 3.01976C33.7927 1.14289 31.248 0.0871728 28.5937 0.0842285ZM36.3804 27.8938C36.3804 29.9589 35.56 31.9395 34.0997 33.3998C32.6394 34.86 30.6589 35.6804 28.5937 35.6804H10.7956C8.73046 35.6804 6.74989 34.86 5.2896 33.3998C3.82932 31.9395 3.00894 29.9589 3.00894 27.8938V10.0957C3.00894 8.03051 3.82932 6.04994 5.2896 4.58965C6.74989 3.12937 8.73046 2.30899 10.7956 2.30899H28.5937C30.6589 2.30899 32.6394 3.12937 34.0997 4.58965C35.56 6.04994 36.3804 8.03051 36.3804 10.0957V27.8938ZM31.1893 9.35407C31.1893 9.72075 31.0805 10.0792 30.8768 10.3841C30.6731 10.689 30.3835 10.9266 30.0448 11.0669C29.706 11.2072 29.3332 11.244 28.9736 11.1724C28.614 11.1009 28.2836 10.9243 28.0243 10.665C27.7651 10.4057 27.5885 10.0754 27.517 9.71576C27.4454 9.35613 27.4821 8.98336 27.6225 8.64459C27.7628 8.30582 28.0004 8.01627 28.3053 7.81255C28.6102 7.60884 28.9686 7.5001 29.3353 7.5001C29.827 7.5001 30.2986 7.69543 30.6462 8.04312C30.9939 8.3908 31.1893 8.86237 31.1893 9.35407Z" fill="#725A58"/>
</svg>
