<svg width="97" height="100" viewBox="0 0 97 100" fill="none" xmlns="http://www.w3.org/2000/svg">
<path d="M38.7109 35.4609C37.4133 35.4609 36.1272 35.3721 34.9246 35.018C30.5934 33.7383 27.4463 29.9081 26.4563 25.5787C25.4663 21.2295 26.5994 16.4671 29.6473 13.173C32.4669 10.127 35.8078 9.49586 39.7333 9.49586C39.7738 9.49586 39.8431 9.49871 39.9319 9.50237C39.9795 9.50434 40.0328 9.50653 40.0903 9.50864C40.2542 9.51466 40.4509 9.51993 40.6439 9.51683C40.8367 9.51374 41.0271 9.5023 41.178 9.47451C41.2534 9.46064 41.3204 9.44243 41.3733 9.41839C41.4255 9.39467 41.4687 9.36319 41.4895 9.32002L41.4896 9.31967C41.4932 9.31206 41.4942 9.30324 41.4918 9.29452C41.4896 9.28653 41.4852 9.28082 41.4816 9.27719C41.4749 9.27039 41.4664 9.26611 41.4599 9.26331C41.446 9.25734 41.4264 9.25213 41.4038 9.24736C41.3578 9.23766 41.2911 9.22818 41.2113 9.21901C41.0514 9.20065 40.8352 9.18318 40.6179 9.16806C40.1838 9.13785 39.7421 9.11677 39.7333 9.11677C39.409 9.11677 39.0843 9.11519 38.7595 9.11361C35.2661 9.09662 31.7626 9.07957 28.6694 11.027L28.6694 11.027C23.8491 14.0656 21.6928 20.1167 22.9444 25.5878C24.102 30.6687 28.1295 34.7516 33.3363 35.5386C35.5596 35.8744 37.8809 35.8247 40.1626 35.7758C40.9693 35.7585 41.771 35.7413 42.5617 35.7413C42.6022 35.7413 42.6715 35.7442 42.7604 35.7478C42.808 35.7498 42.8612 35.752 42.9187 35.7541C43.0826 35.7601 43.2793 35.7654 43.4724 35.7623C43.6651 35.7592 43.8555 35.7477 44.0064 35.72C44.0818 35.7061 44.1488 35.6879 44.2017 35.6638C44.2504 35.6417 44.2913 35.6128 44.3134 35.574L44.318 35.575C44.3211 35.5684 44.3223 35.5609 44.321 35.5534V35.5518L44.3207 35.5517C44.3205 35.5511 44.3204 35.5505 44.3202 35.5498C44.318 35.5418 44.3136 35.5361 44.31 35.5325C44.3033 35.5257 44.2948 35.5214 44.2883 35.5186C44.2744 35.5127 44.2548 35.5074 44.2322 35.5027C44.1862 35.493 44.1195 35.4835 44.0397 35.4743C43.8798 35.456 43.6636 35.4385 43.4463 35.4234C43.0122 35.3932 42.5705 35.3721 42.5617 35.3721C41.946 35.3721 41.3146 35.3938 40.677 35.4158L40.6559 35.4165C40.0109 35.4387 39.3597 35.4609 38.7109 35.4609Z" fill="#191919" stroke="#191919" stroke-width="0.0631773"/>
<path d="M50.5628 61.9781V9.28186C50.5628 9.26464 50.555 9.25049 50.5452 9.23986C50.5357 9.22949 50.5232 9.22101 50.5096 9.21384C50.4824 9.19949 50.4445 9.18701 50.399 9.17581C50.3075 9.15328 50.1773 9.13409 50.0208 9.11763C49.7075 9.08465 49.2836 9.0621 48.8404 9.04667C47.9538 9.0158 46.9871 9.01333 46.6662 9.01333C46.4627 9.01333 46.0298 9.0319 45.6476 9.06839C45.4566 9.08662 45.2772 9.10943 45.1452 9.13686C45.0794 9.15052 45.0237 9.16565 44.9838 9.18261C44.964 9.19104 44.9463 9.20068 44.9329 9.21212C44.9198 9.22337 44.907 9.24002 44.907 9.26211C44.907 9.27693 44.9146 9.28777 44.9216 9.29437C44.9283 9.30082 44.9366 9.30548 44.9443 9.30899C44.9599 9.31609 44.9808 9.32186 45.0047 9.32683C45.0532 9.33689 45.1218 9.34513 45.204 9.35198C45.3687 9.36571 45.5927 9.37421 45.8307 9.37946C46.2403 9.38849 46.6933 9.38792 46.9611 9.38759C46.9913 9.38755 47.0192 9.38752 47.0443 9.3875V61.9781H45.9258C45.8853 61.9781 45.816 61.9752 45.727 61.9716C45.6795 61.9696 45.6263 61.9674 45.5688 61.9653C45.4049 61.9593 45.2082 61.954 45.0152 61.9571C44.8224 61.9602 44.632 61.9717 44.4811 61.9994C44.4057 62.0133 44.3388 62.0315 44.2858 62.0556C44.2336 62.0793 44.1905 62.1108 44.1697 62.1539L44.1697 62.1539L44.1695 62.1543C44.166 62.1619 44.165 62.1707 44.1673 62.1794C44.1695 62.1874 44.1739 62.1931 44.1775 62.1968C44.1842 62.2036 44.1927 62.2078 44.1992 62.2106C44.2131 62.2166 44.2327 62.2218 44.2553 62.2266C44.3013 62.2363 44.368 62.2458 44.4478 62.2549C44.6077 62.2733 44.824 62.2908 45.0413 62.3059C45.4753 62.3361 45.9171 62.3572 45.9258 62.3572H54.8849C55.5194 62.3572 56.1657 62.3701 56.8181 62.3831C59.1304 62.4294 61.5192 62.4771 63.7327 61.9565L63.7328 61.9565C69.4624 60.6027 72.689 55.7036 73.2331 50.4624C73.7771 45.2216 71.6397 39.6311 66.6333 36.8916L66.6322 36.891L66.6234 36.8866C66.6232 36.8866 66.623 36.8865 66.6229 36.8864C64.8404 35.9111 62.8882 35.533 60.8943 35.3983C59.5121 35.305 58.1077 35.3286 56.7255 35.3518C56.1145 35.3621 55.508 35.3723 54.9096 35.3723C54.8691 35.3723 54.7998 35.3695 54.7109 35.3658C54.6633 35.3638 54.6101 35.3616 54.5526 35.3595C54.3887 35.3535 54.192 35.3482 53.9989 35.3513C53.8062 35.3544 53.6158 35.3659 53.4649 35.3937C53.3895 35.4075 53.3225 35.4257 53.2696 35.4498C53.2174 35.4735 53.1742 35.505 53.1534 35.5482L53.1533 35.5485C53.1497 35.5561 53.1487 35.5649 53.1511 35.5736C53.1533 35.5816 53.1577 35.5874 53.1613 35.591C53.168 35.5978 53.1765 35.6021 53.183 35.6049C53.1969 35.6108 53.2165 35.616 53.2391 35.6208C53.2851 35.6305 53.3518 35.64 53.4316 35.6492C53.5915 35.6675 53.8077 35.685 54.025 35.7001C54.4591 35.7303 54.9008 35.7514 54.9096 35.7514C55.4059 35.7514 55.9114 35.734 56.4191 35.7165C56.6767 35.7077 56.9349 35.6988 57.1927 35.6922C57.9593 35.6724 58.724 35.6725 59.4672 35.7512C62.4135 36.066 65.1657 37.9162 66.9684 40.2016C70.7949 45.0623 70.8639 52.3224 67.1604 57.2718C65.3723 59.6609 62.5462 61.6635 59.5068 61.9783C58.6968 62.0606 57.8533 62.0328 57.0177 62.0053C56.6026 61.9917 56.1894 61.9781 55.7833 61.9781H50.5628Z" fill="#191919" stroke="#191919" stroke-width="0.0631773"/>
<path d="M91.9095 82.3534L93.5963 78.314C93.8389 77.7221 93.9603 77.3936 93.9603 77.3285C93.9603 77.0326 93.6318 76.8787 92.9748 76.8669V76.4585H95.5316V76.8669C95.1351 76.8846 94.8451 76.9912 94.6616 77.1865C94.4781 77.3759 94.2503 77.799 93.978 78.456L90.7376 86.2774C90.4298 87.0231 90.1576 87.5292 89.9208 87.7955C89.6841 88.0678 89.4237 88.2039 89.1396 88.2039C88.7549 88.2039 88.5625 88.0293 88.5625 87.6801C88.5625 87.2776 88.8703 86.9373 89.4858 86.6591C89.8469 86.4993 90.0866 86.3632 90.2049 86.2508C90.3292 86.1383 90.4506 85.9341 90.5689 85.6382L91.2614 83.907L88.527 78.0476C88.2844 77.5327 88.0831 77.2072 87.9233 77.0711C87.7635 76.9349 87.4913 76.8669 87.1066 76.8669V76.4585H90.4446V76.8669C89.8587 76.8846 89.5657 77.006 89.5657 77.2309C89.5657 77.3196 89.6811 77.6097 89.912 78.1009L91.9095 82.3534Z" fill="#191919"/>
<path d="M86.8758 76.8667H84.6829V81.2613C84.6829 81.936 84.7125 82.3917 84.7717 82.6285C84.8309 82.8593 84.9552 83.0457 85.1446 83.1878C85.3399 83.3298 85.547 83.4008 85.766 83.4008C86.1922 83.4008 86.5621 83.1582 86.8758 82.6729L87.1598 82.8415C86.9764 83.2322 86.7041 83.5281 86.3431 83.7293C85.988 83.9246 85.6269 84.0223 85.26 84.0223C84.8339 84.0223 84.458 83.898 84.1325 83.6494C83.8129 83.3949 83.6117 83.099 83.5288 82.7616C83.4519 82.4243 83.4134 81.8324 83.4134 80.9861V76.8667H82.3569V76.4584C82.8423 76.4465 83.2773 76.2423 83.662 75.8458C84.0467 75.4492 84.2923 74.8929 84.3988 74.1768H84.6829V76.4584H86.8758V76.8667Z" fill="#191919"/>
<path d="M80.3061 76.4585V81.2259C80.3061 82.019 80.3179 82.5161 80.3416 82.7174C80.3653 82.9186 80.4511 83.0695 80.5991 83.1701C80.7529 83.2708 81.0252 83.3211 81.4158 83.3211V83.7294C80.5162 83.7413 79.8592 83.836 79.4449 84.0135H79.3384C79.149 83.688 79.0484 83.1258 79.0366 82.3267C78.6755 82.889 78.2612 83.3122 77.7937 83.5963C77.332 83.8804 76.8201 84.0224 76.2578 84.0224C75.7725 84.0224 75.3434 83.9129 74.9705 83.6939C74.5976 83.469 74.3402 83.1968 74.1981 82.8772C74.062 82.5576 73.9939 82.0752 73.9939 81.4301V78.9532C73.9939 78.1127 73.9792 77.6008 73.9496 77.4173C73.92 77.2279 73.8253 77.0888 73.6655 77C73.5116 76.9113 73.2245 76.8669 72.8043 76.8669V76.4585H75.2724V81.5011C75.2724 81.9983 75.302 82.3593 75.3611 82.5842C75.4203 82.8091 75.5712 83.0074 75.8139 83.179C76.0566 83.3447 76.3377 83.4276 76.6573 83.4276C77.113 83.4276 77.548 83.2796 77.9623 82.9837C78.3766 82.6819 78.6578 82.3652 78.8057 82.0338C78.9596 81.6964 79.0366 81.217 79.0366 80.5956V78.9532C79.0366 78.1601 79.0277 77.6777 79.0099 77.5061C78.9922 77.3344 78.9152 77.1865 78.7791 77.0622C78.6489 76.932 78.3737 76.8669 77.9535 76.8669H77.767V76.4585H80.3061Z" fill="#191919"/>
<path d="M71.89 82.3978H72.2184C72.1652 83.4098 71.668 83.9159 70.727 83.9159C70.3245 83.9159 70.0049 83.8093 69.7682 83.5963C69.5373 83.3832 69.3864 83.0666 69.3154 82.6464C68.7235 83.0666 68.182 83.3832 67.6907 83.5963C67.2054 83.8093 66.7704 83.9159 66.3857 83.9159C65.8945 83.9159 65.4713 83.7738 65.1162 83.4897C64.7611 83.2057 64.5835 82.8298 64.5835 82.3623C64.5835 81.7526 64.8794 81.22 65.4713 80.7642C66.0691 80.3085 66.8917 79.8646 67.9393 79.4326L69.3154 78.8733V78.5182C69.3154 78.0151 69.2828 77.6511 69.2177 77.4262C69.1526 77.2013 68.9839 77 68.7117 76.8225C68.4394 76.6449 68.0814 76.5562 67.6375 76.5562C66.7497 76.5562 66.2555 76.8521 66.1549 77.4439C66.0602 78.0476 65.8116 78.3495 65.4091 78.3495C65.0481 78.3495 64.8676 78.1778 64.8676 77.8346C64.8676 77.4972 65.1073 77.1362 65.5867 76.7515C66.0661 76.3608 66.8118 76.1655 67.8239 76.1655C68.5756 76.1655 69.1585 76.2839 69.5728 76.5206C69.9871 76.7574 70.2594 77.0267 70.3896 77.3285C70.5257 77.6304 70.5938 78.092 70.5938 78.7135V81.652C70.5938 82.3386 70.6293 82.7795 70.7003 82.9748C70.7714 83.1701 70.9252 83.2678 71.162 83.2678C71.5526 83.2678 71.7953 82.9778 71.89 82.3978ZM69.3154 79.2905L68.3477 79.6812C66.8207 80.3026 66.0572 81.0839 66.0572 82.0249C66.0572 82.3978 66.1549 82.6996 66.3502 82.9304C66.5455 83.1553 66.8 83.2678 67.1137 83.2678C67.3919 83.2678 67.7144 83.1761 68.0814 82.9926C68.4483 82.8091 68.8597 82.5339 69.3154 82.1669V79.2905Z" fill="#191919"/>
<path d="M63.1896 78.9177H58.1203C58.0966 79.2669 58.0848 79.5273 58.0848 79.6989C58.0848 80.9773 58.2831 81.9391 58.6796 82.5842C59.0821 83.2234 59.6799 83.543 60.4729 83.543C61.5501 83.543 62.3136 83.0606 62.7634 82.0959H63.1896C63.0002 82.6996 62.6243 83.1731 62.0621 83.5164C61.4998 83.8537 60.8872 84.0224 60.2244 84.0224C59.6088 84.0224 59.0259 83.8685 58.4754 83.5608C57.9309 83.2471 57.4841 82.8062 57.1349 82.238C56.7857 81.6698 56.6111 80.9803 56.6111 80.1694C56.6111 79.0212 56.9484 78.0683 57.6232 77.3108C58.2979 76.5473 59.1413 76.1655 60.1533 76.1655C61.1062 76.1655 61.8431 76.4555 62.3639 77.0356C62.8848 77.6156 63.16 78.2429 63.1896 78.9177ZM61.6359 78.5625C61.6537 78.4264 61.6626 78.3051 61.6626 78.1986C61.6626 77.6777 61.5087 77.2753 61.2009 76.9912C60.8991 76.7012 60.5262 76.5562 60.0823 76.5562C59.0051 76.5562 58.363 77.2249 58.1558 78.5625H61.6359Z" fill="#191919"/>
<path d="M51.0714 77.2487C52.4386 77.3493 53.4536 77.6896 54.1165 78.2697C54.7793 78.8497 55.1108 79.5747 55.1108 80.4447C55.1108 81.2023 54.8859 81.8563 54.4361 82.4067C53.9863 82.9512 53.4092 83.3093 52.7049 83.481C52.0065 83.6467 51.0684 83.7295 49.8906 83.7295H45.1676V83.3212H45.6292C46.1442 83.3212 46.4993 83.2561 46.6946 83.1258C46.8958 82.9956 47.0231 82.7944 47.0763 82.5221C47.1296 82.244 47.1562 81.6018 47.1562 80.5957V74.7363C47.1562 73.7597 47.1266 73.1294 47.0675 72.8453C47.0142 72.5612 46.8958 72.3659 46.7123 72.2594C46.5348 72.1528 46.1412 72.0996 45.5316 72.0996H45.3008V71.6912L47.2805 71.6379L49.5355 71.5669C52.8262 71.5669 54.4716 72.5139 54.4716 74.4078C54.4716 75.1891 54.1875 75.8164 53.6193 76.2899C53.057 76.7634 52.2077 77.083 51.0714 77.2487ZM48.8963 77.08C49.0443 77.086 49.1685 77.0889 49.2692 77.0889C50.5476 77.0889 51.4206 76.8877 51.8881 76.4852C52.3557 76.0828 52.5895 75.4317 52.5895 74.5321C52.5895 73.9047 52.4977 73.4194 52.3143 73.0761C52.1308 72.7329 51.8556 72.4695 51.4886 72.286C51.1217 72.0966 50.4943 72.0019 49.6065 72.0019C49.3757 72.0019 49.139 72.0108 48.8963 72.0285V77.08ZM48.8963 77.515V80.1962C48.8963 81.3384 48.917 82.0635 48.9584 82.3712C48.9999 82.679 49.1094 82.9128 49.2869 83.0726C49.4704 83.2324 49.8285 83.3123 50.3611 83.3123C51.3081 83.3123 52.0183 83.0696 52.4918 82.5843C52.9653 82.099 53.202 81.371 53.202 80.4003C53.202 79.406 52.9328 78.6751 52.3942 78.2075C51.8615 77.734 50.9204 77.4973 49.571 77.4973C49.3579 77.4973 49.133 77.5032 48.8963 77.515Z" fill="#191919"/>
<path d="M39.6811 82.3978H40.0096C39.9563 83.4098 39.4591 83.9159 38.5181 83.9159C38.1156 83.9159 37.796 83.8093 37.5593 83.5963C37.3285 83.3832 37.1775 83.0666 37.1065 82.6464C36.5147 83.0666 35.9731 83.3832 35.4819 83.5963C34.9966 83.8093 34.5615 83.9159 34.1768 83.9159C33.6856 83.9159 33.2624 83.7738 32.9073 83.4897C32.5522 83.2057 32.3746 82.8298 32.3746 82.3623C32.3746 81.7526 32.6706 81.22 33.2624 80.7642C33.8602 80.3085 34.6829 79.8646 35.7305 79.4326L37.1065 78.8733V78.5182C37.1065 78.0151 37.074 77.6511 37.0089 77.4262C36.9438 77.2013 36.7751 77 36.5028 76.8225C36.2306 76.6449 35.8725 76.5562 35.4286 76.5562C34.5408 76.5562 34.0466 76.8521 33.946 77.4439C33.8513 78.0476 33.6027 78.3495 33.2003 78.3495C32.8392 78.3495 32.6587 78.1778 32.6587 77.8346C32.6587 77.4972 32.8984 77.1362 33.3778 76.7515C33.8572 76.3608 34.603 76.1655 35.615 76.1655C36.3667 76.1655 36.9497 76.2839 37.364 76.5206C37.7783 76.7574 38.0505 77.0267 38.1807 77.3285C38.3169 77.6304 38.3849 78.092 38.3849 78.7135V81.652C38.3849 82.3386 38.4204 82.7795 38.4915 82.9748C38.5625 83.1701 38.7164 83.2678 38.9531 83.2678C39.3437 83.2678 39.5864 82.9778 39.6811 82.3978ZM37.1065 79.2905L36.1388 79.6812C34.6118 80.3026 33.8484 81.0839 33.8484 82.0249C33.8484 82.3978 33.946 82.6996 34.1413 82.9304C34.3366 83.1553 34.5911 83.2678 34.9048 83.2678C35.183 83.2678 35.5056 83.1761 35.8725 82.9926C36.2395 82.8091 36.6508 82.5339 37.1065 82.1669V79.2905Z" fill="#191919"/>
<path d="M30.093 71.5225V81.2348C30.093 82.0101 30.1019 82.4984 30.1197 82.6997C30.1433 82.9009 30.2292 83.0548 30.3771 83.1613C30.5251 83.2678 30.7885 83.3211 31.1672 83.3211H31.3803V83.7295H27.4918V83.3211H27.7404C28.0955 83.3211 28.3471 83.2738 28.495 83.1791C28.6489 83.0784 28.7406 82.9394 28.7702 82.7618C28.7998 82.5842 28.8146 82.0753 28.8146 81.2348V74.0438C28.8146 73.2803 28.7466 72.8009 28.6104 72.6056C28.4743 72.4043 28.1429 72.3037 27.6161 72.3037V71.8953C27.9771 71.8953 28.4003 71.8539 28.8856 71.771C29.3769 71.6882 29.7142 71.6053 29.8977 71.5225H30.093Z" fill="#191919"/>
<path d="M24.065 78.021C24.2662 77.4942 24.5917 77.0533 25.0415 76.6982C25.4973 76.3431 25.9411 76.1655 26.3732 76.1655C26.7638 76.1655 27.0716 76.2869 27.2965 76.5295C27.5214 76.7722 27.6339 77.0208 27.6339 77.2753C27.6339 77.4469 27.5747 77.5949 27.4563 77.7191C27.3438 77.8434 27.2048 77.9056 27.039 77.9056C26.7431 77.9056 26.5182 77.6866 26.3643 77.2486C26.2578 76.9527 26.098 76.8047 25.8849 76.8047C25.6304 76.8047 25.3256 76.9793 24.9705 77.3285C24.6154 77.6718 24.3875 78.0299 24.2869 78.4027C24.1863 78.7756 24.136 79.2876 24.136 79.9386V81.2348C24.136 82.0101 24.1449 82.4984 24.1626 82.6996C24.1863 82.9008 24.2721 83.0547 24.4201 83.1613C24.568 83.2678 24.8314 83.3211 25.2102 83.3211H25.4588V83.7294H21.5969V83.3211H21.7834C22.1385 83.3211 22.39 83.2737 22.538 83.179C22.6919 83.0784 22.7836 82.9393 22.8132 82.7618C22.8428 82.5842 22.8576 82.0752 22.8576 81.2348V79.184C22.8576 78.4027 22.8457 77.9145 22.8221 77.7191C22.8043 77.5179 22.7215 77.364 22.5735 77.2575C22.4255 77.145 22.1621 77.0888 21.7834 77.0888H21.5969V76.6893C22.1533 76.6242 22.8813 76.4496 23.7809 76.1655C23.9525 76.6331 24.0472 77.2516 24.065 78.021Z" fill="#191919"/>
<path d="M20.5227 82.3978H20.8512C20.7979 83.4098 20.3008 83.9159 19.3597 83.9159C18.9573 83.9159 18.6376 83.8093 18.4009 83.5963C18.1701 83.3832 18.0192 83.0666 17.9481 82.6464C17.3563 83.0666 16.8147 83.3832 16.3235 83.5963C15.8382 83.8093 15.4032 83.9159 15.0184 83.9159C14.5272 83.9159 14.104 83.7738 13.7489 83.4897C13.3938 83.2057 13.2162 82.8298 13.2162 82.3623C13.2162 81.7526 13.5122 81.22 14.104 80.7642C14.7018 80.3085 15.5245 79.8646 16.5721 79.4326L17.9481 78.8733V78.5182C17.9481 78.0151 17.9156 77.6511 17.8505 77.4262C17.7854 77.2013 17.6167 77 17.3444 76.8225C17.0722 76.6449 16.7141 76.5562 16.2702 76.5562C15.3824 76.5562 14.8882 76.8521 14.7876 77.4439C14.6929 78.0476 14.4443 78.3495 14.0419 78.3495C13.6809 78.3495 13.5003 78.1778 13.5003 77.8346C13.5003 77.4972 13.74 77.1362 14.2194 76.7515C14.6988 76.3608 15.4446 76.1655 16.4567 76.1655C17.2083 76.1655 17.7913 76.2839 18.2056 76.5206C18.6199 76.7574 18.8921 77.0267 19.0224 77.3285C19.1585 77.6304 19.2265 78.092 19.2265 78.7135V81.652C19.2265 82.3386 19.2621 82.7795 19.3331 82.9748C19.4041 83.1701 19.558 83.2678 19.7947 83.2678C20.1854 83.2678 20.428 82.9778 20.5227 82.3978ZM17.9481 79.2905L16.9805 79.6812C15.4535 80.3026 14.69 81.0839 14.69 82.0249C14.69 82.3978 14.7876 82.6996 14.9829 82.9304C15.1783 83.1553 15.4327 83.2678 15.7464 83.2678C16.0246 83.2678 16.3472 83.1761 16.7141 82.9926C17.0811 82.8091 17.4924 82.5339 17.9481 82.1669V79.2905Z" fill="#191919"/>
<path d="M10.9347 79.2107H11.3164V83.4277H10.9347C10.8281 82.9483 10.6358 82.5251 10.3576 82.1582C9.29818 83.3537 7.94579 83.9515 6.30043 83.9515C4.56037 83.9515 3.13696 83.4011 2.03018 82.3002C0.929332 81.1994 0.378906 79.7434 0.378906 77.9323C0.378906 76.7427 0.633404 75.6241 1.1424 74.5765C1.6514 73.523 2.36162 72.7417 3.27308 72.2327C4.18454 71.7237 5.18478 71.4692 6.27379 71.4692C7.17341 71.4692 7.98722 71.6557 8.7152 72.0285C9.4491 72.3955 9.99657 72.8039 10.3576 73.2537C10.6121 72.7506 10.766 72.2298 10.8192 71.6912H11.2099L11.3164 76.2544H10.9347C10.6683 74.6327 10.1238 73.5052 9.30114 72.8719C8.48438 72.2387 7.56108 71.922 6.53125 71.922C5.2706 71.922 4.2674 72.434 3.52166 73.4579C2.78184 74.4818 2.41193 75.9466 2.41193 77.8524C2.41193 79.6576 2.81735 81.0425 3.6282 82.0072C4.43904 82.966 5.44815 83.4454 6.65554 83.4454C7.30066 83.4454 7.96058 83.2886 8.6353 82.9749C9.31001 82.6612 9.84268 82.1315 10.2333 81.3858C10.6299 80.6341 10.8636 79.9091 10.9347 79.2107Z" fill="#191919"/>
</svg>
